<svg width="16" height="16" viewBox="0 0 16 16" fill="none" xmlns="http://www.w3.org/2000/svg">
<path d="M15.7247 5.02046L15.7255 5.02892L15.7268 5.03731C15.7404 5.12212 15.816 5.68653 15.5941 6.62568L15.5941 6.62576C15.2746 7.97984 14.5362 9.21393 13.455 10.1941C13.4548 10.1943 13.4545 10.1945 13.4543 10.1948L7.95375 15.1018L2.54616 10.1946L2.54602 10.1944C1.46449 9.21447 0.72582 7.97985 0.406266 6.62575L0.406256 6.6257C0.184328 5.68607 0.260014 5.12183 0.273701 5.03765L0.27512 5.02893L0.275919 5.02012C0.499891 2.55171 2.23438 0.81189 4.35673 0.81189C5.75513 0.81189 7.00767 1.55965 7.74017 2.81307L7.95365 3.17838L8.17064 2.81514C8.90887 1.57933 10.218 0.812197 11.6436 0.812197C13.7663 0.812197 15.5005 2.552 15.7247 5.02046Z" fill="white" stroke="black" stroke-width="0.5"/>
</svg>
